<svg height="200" version="1.1" width="800" xmlns="http://www.w3.org/2000/svg" preserveAspectRatio="xMidYMid meet"
  viewBox="0 0 600 442" xmlns:xlink="http://www.w3.org/1999/xlink">
  <path
    d="M213.9 334.6 L213.9 353.2 L224.4 353.2 L224.4 357 L206.6 357 L206.6 334.6 L213.9 334.6 M245.1 341 L245.1 357 L241.2 357 L241.2 355.7 L228.1 357 L228.1 341 L245.1 341 M235.4 344.8 L235.4 352.4 L241.2 351.8 L241.2 344.8 L235.4 344.8 M266.4 341 L266.4 356.3 L249.2 357 L249.2 341 L266.4 341 M256.4 352.8 L261.6 352.6 L261.6 344.8 L256.4 344.8 L256.4 352.8 M284.4 334.6 L288.4 336.8 L282.2 348 L282.2 357 L277.5 357 L277.5 348.5 L269.7 339.2 L275.1 334.6 L280.7 341.3 L284.4 334.6 M304.2 351.9 L304.2 341 L309 341 L309 357 L304.2 357 L304.2 355.8 L291.8 357 L291.8 341 L299 341 L299 352.5 L304.2 351.9 M330.2 341 L330.2 344.9 L325.1 344.9 L325.1 352.7 L330.2 352.4 L330.2 356.3 L317.8 357 L317.8 344.9 L313 344.9 L313 341 L317.8 341 L317.8 334.6 L325.1 334.6 L325.1 341 L330.2 341 M351.2 341 L351.2 357 L347.4 357 L347.4 355.7 L334.3 357 L334.3 341 L351.2 341 M341.6 344.8 L341.6 352.4 L347.4 351.8 L347.4 344.8 L341.6 344.8 M374 341 L374 357 L369.2 357 L369.2 344.8 L362.6 344.8 L362.6 357 L355.3 357 L355.3 341 L374 341 M395.3 341 L395.3 360.2 L379.2 359.5 L379.2 353.7 L384 353.7 L384 355.9 L391.5 356.2 L391.5 351.9 L377.9 351.9 L377.9 341 L395.3 341 M385.1 344.9 L385.1 348.1 L391.5 348.1 L391.5 344.9 L385.1 344.9 Z"
    style="" fill="currentColor" transform="matrix(9,0,0,9,-2400,-2900)" />
</svg>